<svg width="60" height="72" viewBox="-30 -36 60 72" xmlns="http://www.w3.org/2000/svg">
  <defs>
    <!-- Rim-light from left to right -->
    <linearGradient id="rim" x1="-30" y1="0" x2="30" y2="0" gradientUnits="userSpaceOnUse">
      <stop offset="0%" stop-color="#ffdf8a" stop-opacity="0.35"/>
      <stop offset="25%" stop-color="#28445b" stop-opacity="1"/>
      <stop offset="100%" stop-color="#0d2235" stop-opacity="1"/>
    </linearGradient>
    <filter id="soft" x="-50%" y="-50%" width="200%" height="200%">
      <feGaussianBlur stdDeviation="0.2"/>
    </filter>
  </defs>
  <g fill="url(#rim)" filter="url(#soft)">
    <!-- Backpack -->
    <ellipse cx="-12" cy="-10" rx="10" ry="13"/>
    <!-- Torso -->
    <rect x="-9" y="-20" width="18" height="22" rx="8"/>
    <!-- Head -->
    <circle cx="1" cy="-28" r="6"/>
    <!-- Left arm forward (holding pole) -->
    <rect x="-14" y="-16" width="6" height="18" rx="3" transform="rotate(-20 -11 -7)"/>
    <!-- Right arm back -->
    <rect x="8" y="-14" width="6" height="18" rx="3" transform="rotate(18 11 -5)"/>
    <!-- Left leg forward -->
    <rect x="-8" y="2" width="6" height="24" rx="3" transform="rotate(-8 -5 14)"/>
    <!-- Right leg back -->
    <rect x="4" y="4" width="6" height="26" rx="3" transform="rotate(14 7 17)"/>
    <!-- Boots -->
    <ellipse cx="-6" cy="30" rx="5" ry="3"/>
    <ellipse cx="7" cy="32" rx="5" ry="3"/>
  </g>
  <!-- Hiking pole (slightly darker) -->
  <rect x="-18" y="-8" width="2.2" height="40" rx="1.1" fill="#1b2f44"/>
</svg>

